Coordinates
version=1
nRows=8
nColumns=40
inDegrees=yes

Units are S.I. units (second, meters, Newtons, ...)
Angles are in degrees.

endheader
time	pelvis_tilt	pelvis_list	pelvis_rotation	pelvis_tx	pelvis_ty	pelvis_tz	hip_flexion_r	hip_adduction_r	hip_rotation_r	knee_angle_r	knee_angle_r_beta	ankle_angle_r	subtalar_angle_r	mtp_angle_r	hip_flexion_l	hip_adduction_l	hip_rotation_l	knee_angle_l	knee_angle_l_beta	ankle_angle_l	subtalar_angle_l	mtp_angle_l	lumbar_extension	lumbar_bending	lumbar_rotation	arm_flex_r	arm_add_r	arm_rot_r	elbow_flex_r	pro_sup_r	wrist_flex_r	wrist_dev_r	arm_flex_l	arm_add_l	arm_rot_l	elbow_flex_l	pro_sup_l	wrist_flex_l	wrist_dev_l
      6.42000000	     -5.04035062	     -5.55158588	     -1.31336107	      0.75499829	      0.93242170	      0.43662715	     26.87195207	     -5.67803439	     -9.22804803	     62.08067596	     62.08067596	      6.80645330	    -11.37097068	     -0.81119778	     18.68940475	     -6.27214128	    -10.06505003	     22.01010404	     22.01010404	     12.10282118	     -5.41609694	     -2.18230698	     -9.30967700	      3.98282077	      0.97845802	      7.83760123	    -13.72529582	      0.98621400	     73.72143739	     45.52896929	      0.00000000	      0.00000000	      6.04923085	    -14.25848133	      1.96655906	     40.38868337	     45.76132397	      0.00000000	      0.00000000
      6.43378571	     -5.03671691	     -5.73262061	     -1.45266827	      0.75347052	      0.93318146	      0.43608205	     27.83836257	     -5.29428691	     -9.00345374	     60.97844703	     60.97844703	      6.68760777	    -10.96979251	     -0.84218615	     17.98471920	     -6.38153678	    -10.10951591	     21.52095326	     21.52095326	     12.32210901	     -5.33062650	     -2.23517706	     -9.44884606	      4.10539216	      1.19110493	      5.59487168	    -14.00339597	      1.26071199	     71.23576305	     45.58858809	      0.00000000	      0.00000000	      7.47283458	    -14.27401951	      1.83140588	     41.06516572	     45.80330525	      0.00000000	      0.00000000
      6.44757143	     -5.02480617	     -5.84598293	     -1.55204905	      0.75197214	      0.93384188	      0.43549012	     28.71200049	     -4.99424926	     -8.79286843	     59.72938640	     59.72938640	      6.52971956	    -10.50817450	     -1.13960267	     17.30770392	     -6.42858697	    -10.20785485	     21.08738003	     21.08738003	     12.41783899	     -5.23772513	     -2.59121582	     -9.52954982	      4.16263204	      1.17506824	      4.17464859	    -13.69805238	      1.05839573	     66.42337746	     45.73978743	      0.00000000	      0.00000000	      8.86176675	    -14.37044735	      1.74582363	     41.46308898	     45.84757596	      0.00000000	      0.00000000
      6.46135714	     -5.05344525	     -5.98187045	     -1.66332122	      0.75050517	      0.93439415	      0.43494214	     29.48604278	     -4.67462222	     -8.67004130	     58.19059623	     58.19059623	      6.31446832	     -9.98987804	     -1.41075448	     16.64687942	     -6.47951109	    -10.23105323	     20.58703969	     20.58703969	     12.47660774	     -5.24145231	     -3.04464271	     -9.58448347	      4.23751395	      0.90362792	      3.14400760	    -13.27708581	      0.78851588	     61.45502274	     45.89240141	      0.00000000	      0.00000000	      9.89572963	    -14.53647883	      1.44236640	     42.14194259	     45.91966026	      0.00000000	      0.00000000
      6.47514286	     -5.04061936	     -6.09871235	     -1.80285115	      0.74909779	      0.93490722	      0.43440166	     30.10399845	     -4.36012581	     -8.55749679	     56.41063016	     56.41063016	      6.23511680	     -9.31065284	     -1.33032854	     15.95222223	     -6.51916799	    -10.32646764	     20.12241155	     20.12241155	     12.67227803	     -5.18021052	     -3.13913037	     -9.75079964	      4.36468400	      1.24370733	      1.14446400	    -13.56317299	      0.92423825	     58.84599663	     45.96041905	      0.00000000	      0.00000000	     11.19417749	    -14.43709799	      1.18771487	     43.15689855	     45.97380367	      0.00000000	      0.00000000
      6.48892857	     -5.04186992	     -6.16997143	     -1.95547514	      0.74778436	      0.93532889	      0.43392882	     30.59730971	     -4.07205312	     -8.47654534	     54.32306993	     54.32306993	      6.16315133	     -8.56953651	     -1.23912972	     15.25719742	     -6.51086844	    -10.43222653	     19.62556572	     19.62556572	     12.82733798	     -5.11053462	     -3.29004870	     -9.87563019	      4.44503631	      1.55465970	     -0.49659738	    -13.64395801	      0.82659604	     55.46387874	     46.06611988	      0.00000000	      0.00000000	     12.40804437	    -14.32831922	      0.91803922	     44.15449761	     46.02759324	      0.00000000	      0.00000000
      6.50271429	     -5.12212337	     -6.08906270	     -2.14288349	      0.74647307	      0.93546473	      0.43358968	     31.10650743	     -3.88486009	     -8.32841136	     51.98626506	     51.98626506	      5.94387285	     -7.93380636	     -1.55358523	     14.65064983	     -6.33531308	    -10.55289773	     19.11462413	     19.11462413	     12.74181618	     -5.31303602	     -3.95994730	     -9.79259694	      4.30061843	      0.80816580	      0.07450283	    -12.51084466	     -0.74840976	     47.62938371	     46.37534420	      0.00000000	      0.00000000	     12.86184904	    -14.79341257	      0.01278959	     45.28117630	     46.15032664	      0.00000000	      0.00000000
      6.51650000	     -5.14289235	     -6.11196359	     -2.32600844	      0.74528506	      0.93562392	      0.43323484	     31.33082814	     -3.61060846	     -8.38804326	     49.23413120	     49.23413120	      5.88805134	     -7.03701645	     -1.36953415	     13.99679261	     -6.27820155	    -10.66505402	     18.66669328	     18.66669328	     12.95765439	     -5.30522690	     -4.03035565	     -9.92578859	      4.39901343	      1.06189033	     -1.71558677	    -12.81806403	     -0.84731817	     45.74408963	     46.42896896	      0.00000000	      0.00000000	     13.86247470	    -14.69411002	     -0.36777826	     46.44013387	     46.21126284	      0.00000000	      0.00000000
